<?xml version="1.0" standalone="no"?>
<!DOCTYPE svg PUBLIC "-//W3C//DTD SVG 20010904//EN"
 "http://www.w3.org/TR/2001/REC-SVG-20010904/DTD/svg10.dtd">
<svg version="1.0" xmlns="http://www.w3.org/2000/svg"
 width="106.000000pt" height="106.000000pt" viewBox="0 0 106.000000 106.000000"
 preserveAspectRatio="xMidYMid meet">

<g transform="translate(0.000000,106.000000) scale(0.100000,-0.100000)"
fill="#000000" stroke="none">
<path d="M420 1044 c-280 -60 -464 -339 -406 -614 53 -253 261 -424 516 -424
295 0 524 229 524 524 0 253 -170 462 -419 515 -85 18 -130 18 -215 -1z m221
-34 c257 -49 429 -314 364 -563 -48 -184 -193 -317 -382 -348 -190 -31 -390
76 -478 255 -131 266 18 581 308 652 66 16 120 17 188 4z"/>
<path d="M420 967 c-155 -52 -264 -182 -292 -346 -37 -215 107 -428 327 -487
195 -52 407 52 499 246 29 60 31 73 31 175 0 103 -2 114 -32 177 -97 206 -325
306 -533 235z m338 -44 c30 -15 77 -53 107 -85 177 -191 116 -494 -124 -607
-49 -23 -69 -26 -156 -26 -93 0 -105 2 -166 32 -80 39 -150 111 -187 191 -23
49 -27 70 -27 152 0 85 3 102 31 160 37 78 105 149 177 184 101 50 245 49 345
-1z"/>
</g>
</svg>
